<?xml version="1.0" encoding="UTF-8"?>
<svg version="1.1" xmlns="http://www.w3.org/2000/svg" width="512" height="512">
<path d="M0 0 C1.78350735 1.59972674 3.38332467 3.22687222 5 5 C8.07654221 3.62738886 10.15813813 2.02954579 12.5625 -0.3125 C23.87456968 -10.47850633 36.81766566 -10.64575242 51.18798828 -10.17041016 C80.59006128 -8.38862105 108.50761161 10.20934193 131.44921875 27.203125 C133.94162843 28.95888067 136.47915961 30.4880912 139.125 32 C152.1917979 39.7241135 159.64968944 50.56913109 164 65 C164.29003906 65.91458984 164.29003906 65.91458984 164.5859375 66.84765625 C166.51585725 76.87959761 165.05808185 87.3888856 162 97 C163.155 97.165 164.31 97.33 165.5 97.5 C177.76786211 100.27141277 188.28782919 107.14629573 197 116 C197.69351562 116.61230469 198.38703125 117.22460938 199.1015625 117.85546875 C208.77549049 126.61429544 213.96134044 138.51917797 217 151 C217.19335938 151.73734375 217.38671875 152.4746875 217.5859375 153.234375 C218.23132226 157.54505812 218.18443271 161.83502216 218.1875 166.1875 C218.19974609 167.08275391 218.21199219 167.97800781 218.22460938 168.90039062 C218.2348133 173.61120276 217.89651558 177.71006747 216.70703125 182.27734375 C215.85682545 186.13959858 215.83643463 186.68793449 217.78125 190.3984375 C218.66212448 191.41322085 219.56994565 192.40509073 220.5 193.375 C221.44717275 194.48620094 222.38723309 195.60350125 223.3203125 196.7265625 C223.78211914 197.27602539 224.24392578 197.82548828 224.71972656 198.39160156 C234.24664532 210.36020201 237.34796399 228.12308034 236 243 C234.72581157 253.81984898 232.20814586 264.35658454 226.3125 273.6640625 C224.6951439 275.95816309 224.6951439 275.95816309 225.5 278.6875 C226.73462805 281.41397029 228.05666612 284.03495589 229.4375 286.6875 C237.57505789 302.62655144 237.88547057 321.02838537 233 338 C227.69766972 353.71276628 217.68379282 369.22814451 202.6953125 377.23046875 C202.13585937 377.48441406 201.57640625 377.73835938 201 378 C201.02320313 378.59683594 201.04640625 379.19367188 201.0703125 379.80859375 C201.36536024 393.99196004 199.5719107 406.90261236 194 420 C193.6803125 420.75667969 193.360625 421.51335937 193.03125 422.29296875 C184.40574997 440.91958734 168.69595216 453.94917171 150.26953125 462.2265625 C148 463 148 463 145 463 C144.773125 463.69480469 144.54625 464.38960938 144.3125 465.10546875 C142.71003781 468.63947019 140.50543829 471.39307482 138 474.3125 C137.51160645 474.88355469 137.02321289 475.45460938 136.52001953 476.04296875 C123.99855906 490.33934725 105.21292638 500.7782631 86.1003418 502.21850586 C62.19639257 503.14852281 41.03566841 498.57331692 23 482 C22.29488281 481.36320312 21.58976563 480.72640625 20.86328125 480.0703125 C15.21002226 474.70779254 8.4342889 467.9158223 7 460 C6.34 460 5.68 460 5 460 C4.7525 460.70125 4.505 461.4025 4.25 462.125 C-2.87066111 478.50252055 -19.1134798 490.37045058 -35.03125 497.32421875 C-44.82491223 501.02435237 -53.85639276 502.34420439 -64.3125 502.3125 C-65.36373047 502.32861328 -66.41496094 502.34472656 -67.49804688 502.36132812 C-84.94317635 502.37205039 -101.61972634 496.06607538 -115 485 C-115.77859375 484.38382812 -116.5571875 483.76765625 -117.359375 483.1328125 C-123.61759512 477.93201578 -128.569059 471.80877458 -133 465 C-133 464.34 -133 463.68 -133 463 C-133.68578125 462.89945312 -134.3715625 462.79890625 -135.078125 462.6953125 C-144.74780408 460.39423914 -153.54479128 454.35841857 -161 448 C-161.8146875 447.37609375 -162.629375 446.7521875 -163.46875 446.109375 C-174.99027955 436.50810037 -181.20414778 422.86073957 -186 409 C-186.2371875 408.31550781 -186.474375 407.63101562 -186.71875 406.92578125 C-189.07890525 398.92554913 -189.48372969 389.67226951 -188.5 381.4375 C-188.63048363 377.99078852 -188.63048363 377.99078852 -190.7890625 376.3671875 C-193.14088167 374.80192993 -195.54450545 373.39562705 -198 372 C-212.36065444 361.44931511 -220.30179526 344.21819947 -223.55078125 327.09765625 C-225.84555179 311.2737168 -222.91925349 293.9394679 -214.3125 280.33203125 C-212.69496374 278.04143869 -212.69496374 278.04143869 -213.5 275.3125 C-214.73462805 272.58602971 -216.05666612 269.96504411 -217.4375 267.3125 C-221.30449272 259.72680631 -223.49936335 251.51082308 -224 243 C-224.06445312 242.00742188 -224.12890625 241.01484375 -224.1953125 239.9921875 C-224.79396022 222.47176429 -219.86769316 205.35485833 -207.9375 192.25 C-207.14214844 191.47140625 -206.34679687 190.6928125 -205.52734375 189.890625 C-203.46177497 185.9813644 -204.34561146 183.84488821 -205.38989258 179.67626953 C-209.49091345 161.68691749 -204.47282047 142.38400962 -195 127 C-192.22910689 123.40680947 -189.20518349 120.20518349 -186 117 C-185.38640625 116.30390625 -184.7728125 115.6078125 -184.140625 114.890625 C-175.77433242 105.66625113 -163.93855208 100.0447314 -152 97 C-151.34 97 -150.68 97 -150 97 C-150.2165625 96.319375 -150.433125 95.63875 -150.65625 94.9375 C-154.78647116 80.55821151 -154.28887048 66.85939679 -147.6796875 53.2890625 C-141.74412234 42.74775826 -134.32107277 36.09746374 -124 30 C-122.55422289 29.0753157 -121.11627407 28.13824557 -119.6875 27.1875 C-118.95273438 26.69894531 -118.21796875 26.21039063 -117.4609375 25.70703125 C-115.64829661 24.44969146 -113.86581605 23.14859776 -112.1015625 21.82421875 C-83.33843079 0.26394793 -33.31134536 -26.10167542 0 0 Z M-86 26 C-83.92677345 28.07322655 -82.61359726 28.6738974 -79.9375 29.75 C-75.61267949 31.60548751 -71.88593732 33.9308346 -68.04296875 36.6328125 C-66.05292345 38.05253655 -66.05292345 38.05253655 -63.86328125 38.9296875 C-61.4889107 40.29358169 -61.11324419 41.52859789 -60 44 C-58.80146408 45.57002782 -57.59234154 47.13200803 -56.375 48.6875 C-53.33831664 52.9641624 -52.25270941 55.87467668 -52.4609375 61.08984375 C-53.1465395 63.51925955 -53.98712277 64.49034207 -56 66 C-59.08981452 66.39868574 -61.04010079 66.61519474 -64 66 C-67.00851295 63.67524 -68.74880227 61.40371063 -70.75 58.1875 C-76.0130394 50.73152752 -82.96137902 44.94288115 -92 43 C-103.86035217 41.70949536 -114.11490227 43.22389586 -123.875 50.6875 C-131.06707673 57.49271685 -135.05118148 66.83753214 -135.96875 76.5703125 C-136.02387729 80.85645927 -135.22718821 84.90519853 -134 89 C-133.65324219 90.21171875 -133.30648437 91.4234375 -132.94921875 92.671875 C-131.41400103 95.99489932 -131.41400103 95.99489932 -129.26318359 96.85302734 C-127.03480003 97.4228591 -124.83907021 97.79774303 -122.5625 98.125 C-120.92687479 98.42548418 -119.29272543 98.73411352 -117.66015625 99.05078125 C-116.8623877 99.20369629 -116.06461914 99.35661133 -115.24267578 99.51416016 C-106.01855858 101.51241764 -98.35931223 106.28465281 -91 112 C-90.37480469 112.46019531 -89.74960938 112.92039062 -89.10546875 113.39453125 C-75.85552251 123.77315731 -68.58159478 140.73434442 -66 157 C-64.83213479 168.49989727 -64.83213479 168.49989727 -67.8125 172.328125 C-70 174 -70 174 -73.5 174.5 C-77 174 -77 174 -79.12890625 172.5 C-81.75407073 168.99247335 -81.93982415 165.77496468 -82.4375 161.5 C-84.15617124 149.50420434 -87.84786835 140.12052742 -96 131 C-96.54527344 130.37351562 -97.09054688 129.74703125 -97.65234375 129.1015625 C-106.76362872 119.28281305 -119.761159 113.66744075 -133.0390625 112.87890625 C-147.1495555 112.45509286 -159.76835976 117.11652116 -170.4375 126.375 C-180.86906557 136.5158498 -187.90971005 148.19188017 -189 163 C-188.99241096 169.70111824 -188.50077616 175.99767152 -186.375 182.375 C-184.9255089 186.89270324 -183.90076791 190.54759646 -186 195 C-188.3405921 197.64626644 -190.84847923 200.02587497 -193.42578125 202.44140625 C-202.69054721 211.64993691 -206.34964552 224.19839035 -206.5 237 C-206.33389565 251.14259905 -201.33037323 263.7465697 -191.8203125 274.27734375 C-180.07714509 285.39051291 -167.54257685 289.44562085 -151.85546875 291.33984375 C-148.84985575 292.03471187 -147.80098148 292.55235739 -146 295 C-144.97906546 297.9842702 -144.90292204 299.62051343 -145.6875 302.6875 C-147.23186907 305.40853123 -148.14897131 305.85039166 -151 307 C-166.36399033 309.60612065 -184.13824219 301.6771775 -196.375 293.0625 C-197.24125 292.381875 -198.1075 291.70125 -199 291 C-206.4679122 300.02996834 -207.12798453 312.54762645 -206.26611328 323.78076172 C-204.95965049 334.67594222 -200.10401998 343.73474599 -193 352 C-192.4328125 352.66644531 -191.865625 353.33289063 -191.28125 354.01953125 C-187.49960106 358.11334461 -183.2902116 360.84871657 -178.4296875 363.54296875 C-177.62789062 364.02378906 -176.82609375 364.50460937 -176 365 C-175.07703125 365.4846875 -174.1540625 365.969375 -173.203125 366.46875 C-169.61010938 370.59689561 -170.6101264 375.05528239 -170.875 380.3125 C-171.33007489 399.24474598 -167.74527803 414.41781937 -155 429 C-154.23623047 429.90492188 -154.23623047 429.90492188 -153.45703125 430.828125 C-146.44428935 438.51616797 -137.24751637 443.2463278 -127.625 446.8125 C-120.18270462 449.82741433 -117.60841838 454.08386477 -114 461 C-104.37814053 474.26256305 -89.34361398 481.48556012 -73.625 484.6875 C-56.08771865 486.1993346 -39.79775303 482.7027901 -25.80859375 471.5234375 C-13.70455904 461.29383011 -5.39719639 447.84546815 -3 432 C-1.79854289 413.44635082 -5.64421425 396.85222756 -17.859375 382.375 C-25.26531252 374.15819341 -33.09779592 369.58106657 -42.98876953 364.94335938 C-45.14115358 363.93379249 -47.29203149 362.92300209 -49.43359375 361.890625 C-50.09286865 361.57641602 -50.75214355 361.26220703 -51.43139648 360.93847656 C-53 360 -53 360 -54 358 C-54.35519903 354.16385043 -54.54724594 351.85370366 -52.4375 348.5625 C-49.0995226 346.4227709 -46.78120279 346.24640364 -43 347 C-30.48144378 350.78234453 -19.70892283 356.87965558 -10.25390625 365.88671875 C-7.93097298 368.06472031 -5.49546421 370.02413364 -3 372 C-2.90650252 345.83521387 -2.83599417 319.67045283 -2.79275131 293.50553322 C-2.77213802 281.35633378 -2.74404083 269.20723822 -2.69824219 257.05810547 C-2.65833687 246.46725023 -2.63255823 235.87647023 -2.62364602 225.28554189 C-2.61843758 219.67922548 -2.60622122 214.07312432 -2.57707977 208.46687698 C-2.54985246 203.18589425 -2.54156985 197.90521466 -2.54756927 192.6241684 C-2.54647232 190.69005814 -2.53856224 188.75593735 -2.5231781 186.82188797 C-2.31039499 170.27739021 -2.31039499 170.27739021 -10.1875 156.125 C-16.45604118 150.46867304 -23.37224286 148.62709483 -31.6171875 147.6875 C-34.66299913 146.80870845 -35.48261668 145.74219928 -37 143 C-37.26274852 139.2558336 -37.18823797 136.56471391 -36 133 C-28.6651523 129.77266701 -19.16171493 132.6520578 -12 135 C-9.53246819 136.1931393 -7.32362063 137.53510873 -5 139 C-4.34 139 -3.68 139 -3 139 C-2.9063629 124.68289902 -2.83619258 110.36584585 -2.79275131 96.04850101 C-2.77189899 89.39996812 -2.74362393 82.75169611 -2.69824219 76.10327148 C-2.6547014 69.6841931 -2.63084514 63.26531264 -2.62049103 56.84609795 C-2.61311453 54.4001396 -2.59870999 51.95419178 -2.57707977 49.50831795 C-2.54793741 46.07570319 -2.54404867 42.6439007 -2.54589844 39.21118164 C-2.52432678 37.7028199 -2.52432678 37.7028199 -2.50231934 36.16398621 C-2.54740811 28.40401041 -4.64482283 22.89510071 -8.625 16.3125 C-14.59930582 10.49541275 -21.46920149 6.90379352 -29.8125 6.75 C-50.06938481 7.07068947 -68.72241659 16.15701309 -86 26 Z M21 16 C16.81410637 22.44946111 14.84687024 27.60759965 14.88647461 35.31713867 C14.88632858 36.05884811 14.88618256 36.80055756 14.8860321 37.56474304 C14.88672866 40.01584805 14.89450903 42.46687702 14.90234375 44.91796875 C14.90420884 46.61761941 14.90563232 48.31727061 14.90663147 50.016922 C14.91044945 54.49019861 14.92027362 58.96344276 14.93133545 63.43670654 C14.94156501 68.00141969 14.9461324 72.56613807 14.95117188 77.13085938 C14.96189651 86.08725385 14.97896433 95.04362422 15 104 C15.75418213 103.65428955 16.50836426 103.3085791 17.28540039 102.95239258 C18.27531982 102.50017334 19.26523926 102.0479541 20.28515625 101.58203125 C21.75674194 100.90877808 21.75674194 100.90877808 23.25805664 100.22192383 C30.18900418 97.13320578 37.4346519 95.74088706 45 97 C48.21921215 99.4912496 48.91401413 100.3980989 49.5 104.5 C48.90897051 108.63720644 48.23428966 109.46973739 45 112 C41.86328125 112.8359375 41.86328125 112.8359375 38.3125 113.375 C30.5673803 114.89507022 24.93047621 117.01405566 20.15625 123.5078125 C17.02561687 128.57294063 14.8812141 132.72181252 14.85854149 138.74695969 C14.85245035 139.7294833 14.8463592 140.71200691 14.84008348 141.72430396 C14.83842325 142.80647201 14.83676303 143.88864006 14.83505249 145.00360107 C14.82940895 146.15122618 14.8237654 147.29885128 14.81795084 148.48125291 C14.8032813 151.67216083 14.79307012 154.86304762 14.78473234 158.05397725 C14.77467973 161.49393104 14.75894765 164.93385945 14.74394226 168.37379456 C14.71545725 175.11818165 14.69235195 181.86257703 14.6711645 188.60699061 C14.65383534 194.09402138 14.63460078 199.58104238 14.61400223 205.06806183 C14.61107363 205.84875175 14.60814504 206.62944166 14.6051277 207.43378885 C14.5991705 209.0198493 14.59320929 210.60590973 14.58724411 212.19197014 C14.53147732 227.08149981 14.48183508 241.97104517 14.4342391 256.86060289 C14.39332289 269.61460872 14.34706063 282.36858599 14.296875 295.12255859 C14.23857236 309.93981191 14.18373847 324.75707162 14.13427413 339.57435727 C14.12897635 341.15828786 14.12367374 342.74221843 14.11836624 344.32614899 C14.11575641 345.10539655 14.11314657 345.88464411 14.11045765 346.68750523 C14.09190115 352.15677823 14.07089012 357.62603859 14.0489006 363.09529877 C14.02209668 369.77754595 13.99909489 376.45979371 13.98081563 383.14206985 C13.97140897 386.54641859 13.95981002 389.95072012 13.94471169 393.35505104 C13.64206448 433.90523253 13.64206448 433.90523253 33.94921875 468.1171875 C44.97791971 478.91481092 60.77484999 484.93576154 76.0625 485.3125 C91.68381793 484.80066127 105.11285861 480.35102968 117 470 C117.82113281 469.38253906 118.64226562 468.76507813 119.48828125 468.12890625 C122.20603785 465.8253645 124.07045815 463.46705819 126.125 460.5625 C126.78757812 459.63566406 127.45015625 458.70882813 128.1328125 457.75390625 C130.03562413 455.10617942 130.03562413 455.10617942 131.2109375 452.390625 C133.90682723 448.78825706 137.39125094 447.7931217 141.5 446.1875 C156.9704283 439.71967212 170.28398847 429.46122181 177.41015625 413.92578125 C182.41896096 401.58630609 183.29094627 390.53719637 182.65820312 377.34570312 C182.46771786 369.61395506 182.46771786 369.61395506 185.21484375 366.4453125 C186.13394531 365.96835937 187.05304688 365.49140625 188 365 C188.77859375 364.54238281 189.5571875 364.08476562 190.359375 363.61328125 C191.54273438 362.96939453 191.54273438 362.96939453 192.75 362.3125 C204.98346869 355.04149335 213.57851977 343.3461683 217.33984375 329.65234375 C219.45923541 317.92671533 218.93170848 305.98500952 214 295 C212.46393543 292.72379357 212.46393543 292.72379357 211 291 C210.15179688 291.59167969 209.30359375 292.18335938 208.4296875 292.79296875 C195.24831313 301.76078059 179.37440494 308.95343778 163 307 C160.796875 306.19140625 160.796875 306.19140625 159 305 C157.50809553 301.4058665 156.79354038 299.03229812 157.5625 295.1875 C159.42637459 292.3511691 160.79198451 292.04271596 164 291 C166.20104037 290.65761594 168.41099136 290.36989035 170.625 290.125 C181.21332035 288.68667017 189.4585628 285.38926405 198 279 C199.010625 278.278125 200.02125 277.55625 201.0625 276.8125 C209.7991079 269.19223644 216.3266721 257.47902936 218 246 C218.94876062 230.19769189 217.09849216 216.84371333 207 204 C205.40078494 202.41111912 203.77574717 200.8477736 202.125 199.3125 C198.72410509 196.03928374 196.80526053 193.87526105 196.7109375 189.07421875 C197.15882124 185.86035027 198.20350933 182.89423565 199.21875 179.8203125 C203.02378963 166.08411945 200.47236699 152.20215459 193.79296875 139.81640625 C185.98885734 127.55766044 174.31319554 118.00018445 160.171875 114.25 C145.60280433 111.31990757 131.1098126 113.42234242 118.484375 121.63671875 C116.2322686 123.341119 114.10762049 125.12067109 112 127 C111.38511719 127.52207031 110.77023437 128.04414063 110.13671875 128.58203125 C98.88477767 138.83601747 95.13177928 152.28890903 93.72265625 166.8984375 C92.88524754 170.49250514 91.92655075 171.80110343 89 174 C85.5 174.5 85.5 174.5 82 174 C79.27849001 171.91998879 78.14302656 170.71933947 77.46875 167.328125 C77.66865128 147.63784914 84.64405827 129.61609076 98.47021484 115.45458984 C107.06524207 107.28204401 117.88205174 101.15467194 129.61328125 99.1640625 C138.08127638 98.14471689 138.08127638 98.14471689 145.00390625 93.84375 C146.11733158 91.1813898 146.64053813 88.85877908 147 86 C147.16113281 85.25234375 147.32226562 84.5046875 147.48828125 83.734375 C149.04793848 74.97508795 146.9238772 66.44325727 142.3515625 58.9296875 C140.48770062 56.26856678 138.43983879 54.14229747 136 52 C135.113125 51.154375 134.22625 50.30875 133.3125 49.4375 C124.57788575 42.48501107 114.70508813 41.96437538 104 43 C94.7941845 44.87342067 87.61114214 51.12794253 82.109375 58.55078125 C81.09342691 60.09689643 80.10483807 61.66166649 79.15625 63.25 C78 65 78 65 76 66 C68.63551233 66.46758652 68.63551233 66.46758652 66.28515625 64.73828125 C64.2748045 62.01911246 64.35106277 59.853099 64.4375 56.546875 C65.34719455 52.42798023 67.70807195 49.53968584 70.2734375 46.26171875 C72.04569462 44.11739311 72.04569462 44.11739311 72.9765625 41.83203125 C74.29910448 39.46458016 75.54750749 39.08901292 78 38 C79.55448072 36.89277338 81.09521774 35.76610794 82.625 34.625 C87.4827817 31.16238477 92.37469829 28.92696505 98 27 C93.75230822 23.23848981 89.21915516 20.93892338 84.125 18.5625 C83.28582031 18.16925537 82.44664062 17.77601074 81.58203125 17.37084961 C63.29457075 8.96423722 37.33848385 -1.09841333 21 16 Z " fill="#000000" transform="translate(250,10)"/>
<path d="M0 0 C3.44840265 1.03387863 4.90292035 2.81495438 7.09765625 5.62890625 C7.98140075 8.44627071 8.28458067 11.26241708 8.59765625 14.19140625 C10.71976425 29.43493367 16.88769942 41.06911978 28.828125 51.03125 C42.09538597 60.37085368 57.38488542 62.98099508 73.25830078 60.25830078 C83.25227589 57.8372748 91.00641762 51.97527287 98.6875 45.41796875 C101.09765625 43.62890625 101.09765625 43.62890625 104.59765625 43.06640625 C108.09765625 43.62890625 108.09765625 43.62890625 111.03515625 45.62890625 C113.11301192 48.65124177 114.08697005 50.7383488 113.828125 54.453125 C111.00786806 62.85356946 100.49924739 68.69773003 93.09765625 72.62890625 C84.96075445 76.41141177 76.99299078 78.55505505 68.09765625 79.62890625 C68.07703125 80.66015625 68.05640625 81.69140625 68.03515625 82.75390625 C66.60256662 93.82213299 59.23202141 104.36515205 51.09765625 111.62890625 C44.3510871 116.82396469 37.22702293 120.17823817 29.09765625 122.62890625 C28.46730469 122.82097656 27.83695313 123.01304687 27.1875 123.2109375 C24.31146967 123.78614357 21.52880594 123.87753946 18.59765625 123.94140625 C17.47359375 123.97878906 16.34953125 124.01617187 15.19140625 124.0546875 C11.44960505 123.53971738 10.35921151 122.5908486 8.09765625 119.62890625 C6.93026108 115.97106805 6.74381496 114.37028801 8.41015625 110.87890625 C11.73378254 106.44740453 14.47521839 106.06912264 19.72265625 105.25390625 C28.3436371 103.76766216 36.01642384 101.41687648 42.09765625 94.62890625 C45.5981046 89.62946208 48.53423596 84.56990337 50.09765625 78.62890625 C48.92203125 78.58765625 47.74640625 78.54640625 46.53515625 78.50390625 C34.57129914 77.1285337 24.26867973 71.09405676 15.09765625 63.62890625 C14.04578125 62.84515625 12.99390625 62.06140625 11.91015625 61.25390625 C-1.25076044 48.970384 -9.63941276 31.50373929 -10.36352539 13.43530273 C-10.51889888 5.45457746 -10.51889888 5.45457746 -8.1171875 2.23828125 C-5.45347809 0.30274637 -3.25586947 0.11003933 0 0 Z " fill="#000000" transform="translate(115.90234375,167.37109375)"/>
<path d="M0 0 C2.90000514 0.60739327 4.18543046 2.06343542 5.90234375 4.3984375 C10.0934014 12.7805528 5.59999455 25.96292628 2.90234375 34.3984375 C-3.75943214 51.31205293 -16.87892225 65.29807091 -33.09765625 73.3984375 C-39.54910545 76.05859735 -46.22491548 78.16186482 -53.09765625 79.3984375 C-49.87678532 89.54841892 -44.8771275 96.6709981 -35.41015625 101.8359375 C-29.95897784 104.36783001 -24.82117712 105.13229823 -18.90234375 105.86328125 C-16.09765625 106.3984375 -16.09765625 106.3984375 -12.78515625 108.5234375 C-10.38852987 112.60657874 -10.42609927 114.69753865 -11.09765625 119.3984375 C-13.33542668 122.50067671 -14.53818693 123.30698578 -18.34765625 123.9296875 C-33.74531464 123.80137368 -46.09662988 119.36210141 -57.34765625 108.6484375 C-63.84700905 101.81291127 -67.65103589 95.8859306 -69.34765625 86.5859375 C-70.11241613 83.18932064 -70.11241613 83.18932064 -72.09765625 80.3984375 C-76.19475637 78.13648469 -80.86983679 77.44025583 -85.40625 76.48828125 C-96.81974154 74.07003188 -109.62299544 66.22886764 -116.09765625 56.3984375 C-117.16594911 52.81202576 -117.40530399 51.1108849 -115.91015625 47.6484375 C-113.96419943 45.23276697 -113.07378042 44.22513866 -110.09765625 43.3984375 C-104.55442492 43.72527897 -101.89434041 44.89966874 -97.84765625 48.6484375 C-86.51823268 58.45064854 -72.79681922 62.18031225 -57.94140625 61.1875 C-42.29643621 59.00543839 -30.34559242 51.48183019 -20.8515625 38.9765625 C-15.75052401 31.47837675 -12.76377267 23.92658122 -11.6796875 14.9296875 C-11.45345703 13.05796875 -11.45345703 13.05796875 -11.22265625 11.1484375 C-11.04089844 9.37726563 -11.04089844 9.37726563 -10.85546875 7.5703125 C-9.35779325 1.30169133 -5.99906187 -0.29045737 0 0 Z " fill="#000000" transform="translate(417.09765625,158.6015625)"/>
<path d="M0 0 C15.72904308 12.07894454 25.66334503 28.41702135 28.37109375 48.15234375 C28.43414579 49.94302181 28.45780489 51.73571954 28.43359375 53.52734375 C28.42457031 54.40132813 28.41554688 55.2753125 28.40625 56.17578125 C28.39464844 56.82804687 28.38304687 57.4803125 28.37109375 58.15234375 C29.47517578 57.99185547 29.47517578 57.99185547 30.6015625 57.828125 C38.58461012 56.84738071 38.58461012 56.84738071 42.43359375 58.33984375 C44.55091715 60.32056564 45.59371062 61.35376447 46.37109375 64.15234375 C46.05288636 70.19828412 46.05288636 70.19828412 44.1875 72.80859375 C41.67375169 74.66822691 39.59232942 74.75296725 36.49609375 75.08984375 C29.48678718 76.03535779 23.02610904 77.77682359 16.37109375 80.15234375 C15.654375 80.40371094 14.93765625 80.65507812 14.19921875 80.9140625 C3.80415482 85.31693049 -4.84914644 95.17857829 -9.62890625 105.15234375 C-10.015625 105.91804688 -10.40234375 106.68375 -10.80078125 107.47265625 C-13.64642713 113.72070482 -14.41486753 119.96641828 -15.0390625 126.734375 C-15.65037168 130.27672954 -16.44896764 132.31635726 -18.62890625 135.15234375 C-22.67907103 136.98638063 -24.67853714 137.45717912 -28.94140625 136.08984375 C-32.05423447 133.84571178 -32.54905987 132.76881041 -33.62890625 129.15234375 C-34.52993668 111.47828535 -27.04545277 93.93142988 -15.88671875 80.56640625 C-8.97168952 73.17282828 -0.86960159 67.30821203 8.37109375 63.15234375 C9.03109375 63.15234375 9.69109375 63.15234375 10.37109375 63.15234375 C10.00213722 48.61545656 8.1139941 33.77034552 -2.81640625 22.99609375 C-4.62890625 21.15234375 -4.62890625 21.15234375 -4.62890625 19.15234375 C-5.21929687 18.88035156 -5.8096875 18.60835938 -6.41796875 18.328125 C-8.5760098 17.18047419 -10.15533213 15.92493332 -12.00390625 14.33984375 C-20.89644377 7.61701964 -31.49905704 5.64360346 -42.3515625 4.90234375 C-46.48492614 3.95644885 -48.04313141 2.4638658 -50.62890625 -0.84765625 C-51.53628766 -3.8741396 -51.09323758 -5.59733695 -50.62890625 -8.84765625 C-48.92074695 -11.22687813 -47.71170908 -12.42484753 -44.98828125 -13.48828125 C-29.59697501 -15.8326524 -12.26256864 -8.61841748 0 0 Z " fill="#000000" transform="translate(333.62890625,304.84765625)"/>
<path d="M0 0 C2.27034752 1.92635547 3.26552443 2.88088796 4.0625 5.75 C3.74106202 11.85732157 3.74106202 11.85732157 1.80444336 14.4050293 C-0.36860635 16.08286123 -1.90955628 16.33546872 -4.62109375 16.70703125 C-5.54293457 16.84633057 -6.46477539 16.98562988 -7.41455078 17.12915039 C-8.39149902 17.27215576 -9.36844727 17.41516113 -10.375 17.5625 C-26.18062585 20.20613198 -38.05741852 26.43310618 -47.8828125 39.296875 C-53.60006437 48.31806639 -57.11753825 58.36651944 -57 69.0625 C-56.99097656 70.13113281 -56.98195312 71.19976562 -56.97265625 72.30078125 C-56.96105469 73.10902344 -56.94945312 73.91726563 -56.9375 74.75 C-56.13828125 75.12769531 -55.3390625 75.50539063 -54.515625 75.89453125 C-37.67797342 84.33311954 -24.07613655 98.04586094 -17.78125 116.05859375 C-14.88419555 125.17396864 -12.78023878 134.12858405 -13.9375 143.75 C-15.9375 147 -15.9375 147 -18.9375 148.75 C-21.96536793 149.40353981 -23.74514212 149.20605113 -26.9375 148.75 C-29.37171216 147.08750365 -30.67721304 145.71753755 -31.45288086 142.83422852 C-31.83241289 140.4770663 -32.11424672 138.12317901 -32.375 135.75 C-34.47653023 120.39109859 -40.16940463 108.87710735 -52.375 98.875 C-60.35095737 93.08061982 -68.6134597 89.51201837 -78.40625 88.33203125 C-80.27796875 88.10580078 -80.27796875 88.10580078 -82.1875 87.875 C-83.95867187 87.69324219 -83.95867187 87.69324219 -85.765625 87.5078125 C-89.40056204 86.63936695 -90.72835858 85.72939897 -92.9375 82.75 C-93.62174771 77.96026601 -93.62038481 75.92065967 -91.1875 71.75 C-86.27811709 68.72884129 -81.55742525 69.34665608 -75.9375 69.75 C-75.92332031 68.9971875 -75.90914062 68.244375 -75.89453125 67.46875 C-75.01624771 47.90913819 -66.97842166 30.39953708 -52.9375 16.75 C-40.78422622 6.20854608 -16.5706732 -7.0513503 0 0 Z " fill="#000000" transform="translate(198.9375,310.25)"/>
</svg>
